REM DIRINDEX 1\2,1\3,1\4,1\5,1\6
REM DIRNAME folder01,folder02,folder03,folder04,folder05,folder06
TITLE ""
FILE "DISC1Track16.mp3" MP3
  TRACK 01 AUDIO
    TITLE "0:"
    INDEX 01 00:00:00
  TRACK 02 AUDIO
    TITLE "3:cjc129_0426"
    INDEX 01 00:00:05
  TRACK 03 AUDIO
    TITLE "0:"
    INDEX 01 00:01:26
  TRACK 04 AUDIO
    TITLE "5:cjc129_0427"
    INDEX 01 00:01:60
  TRACK 05 AUDIO
    TITLE "0:"
    INDEX 01 00:04:17
  TRACK 06 AUDIO
    TITLE "4:cjc129_0428"
    INDEX 01 00:05:07
  TRACK 07 AUDIO
    TITLE "0:"
    INDEX 01 00:06:26
  TRACK 08 AUDIO
    TITLE "6:cjc129_0429"
    INDEX 01 00:06:61
  TRACK 09 AUDIO
    TITLE "0:"
    INDEX 01 00:10:63
  TRACK 10 AUDIO
    TITLE "3:cjc129_0430"
    INDEX 01 00:12:36
  TRACK 11 AUDIO
    TITLE "0:"
    INDEX 01 00:13:55
  TRACK 12 AUDIO
    TITLE "5:cjc129_0431"
    INDEX 01 00:14:13
  TRACK 13 AUDIO
    TITLE "0:"
    INDEX 01 00:15:25
  TRACK 14 AUDIO
    TITLE "4:cjc129_0432"
    INDEX 01 00:16:16
  TRACK 15 AUDIO
    TITLE "0:"
    INDEX 01 00:17:35
  TRACK 16 AUDIO
    TITLE "6:cjc129_0433"
    INDEX 01 00:17:67
  TRACK 17 AUDIO
    TITLE "0:"
    INDEX 01 00:21:43
  TRACK 18 AUDIO
    TITLE "3:cjc129_0434"
    INDEX 01 00:23:18
  TRACK 19 AUDIO
    TITLE "0:"
    INDEX 01 00:24:49
  TRACK 20 AUDIO
    TITLE "5:cjc129_0435"
    INDEX 01 00:25:07
  TRACK 21 AUDIO
    TITLE "0:"
    INDEX 01 00:27:67
  TRACK 22 AUDIO
    TITLE "4:cjc129_0436"
    INDEX 01 00:28:57
  TRACK 23 AUDIO
    TITLE "0:"
    INDEX 01 00:30:16
  TRACK 24 AUDIO
    TITLE "6:cjc129_0437"
    INDEX 01 00:30:46
  TRACK 25 AUDIO
    TITLE "0:"
    INDEX 01 00:35:55
  TRACK 26 AUDIO
    TITLE "3:cjc129_0438"
    INDEX 01 00:37:28
  TRACK 27 AUDIO
    TITLE "0:"
    INDEX 01 00:38:61
  TRACK 28 AUDIO
    TITLE "5:cjc129_0439"
    INDEX 01 00:39:17
  TRACK 29 AUDIO
    TITLE "0:"
    INDEX 01 00:41:53
  TRACK 30 AUDIO
    TITLE "4:cjc129_0440"
    INDEX 01 00:42:43
  TRACK 31 AUDIO
    TITLE "0:"
    INDEX 01 00:44:01
  TRACK 32 AUDIO
    TITLE "6:cjc129_0441"
    INDEX 01 00:44:32
  TRACK 33 AUDIO
    TITLE "0:"
    INDEX 01 00:51:62
  TRACK 34 AUDIO
    TITLE "3:cjc129_0442"
    INDEX 01 00:53:37
  TRACK 35 AUDIO
    TITLE "0:"
    INDEX 01 00:54:52
  TRACK 36 AUDIO
    TITLE "5:cjc129_0443"
    INDEX 01 00:56:20
  TRACK 37 AUDIO
    TITLE "0:"
    INDEX 01 00:57:41
  TRACK 38 AUDIO
    TITLE "4:cjc129_0444"
    INDEX 01 00:58:32
  TRACK 39 AUDIO
    TITLE "0:"
    INDEX 01 00:59:47
  TRACK 40 AUDIO
    TITLE "6:cjc129_0445"
    INDEX 01 01:00:02
  TRACK 41 AUDIO
    TITLE "0:"
    INDEX 01 01:04:31
  TRACK 42 AUDIO
    TITLE "3:cjc129_0446"
    INDEX 01 01:06:06
  TRACK 43 AUDIO
    TITLE "0:"
    INDEX 01 01:07:19
  TRACK 44 AUDIO
    TITLE "5:cjc129_0447"
    INDEX 01 01:08:46
  TRACK 45 AUDIO
    TITLE "0:"
    INDEX 01 01:09:67
  TRACK 46 AUDIO
    TITLE "4:cjc129_0448"
    INDEX 01 01:10:57
  TRACK 47 AUDIO
    TITLE "0:"
    INDEX 01 01:11:70
  TRACK 48 AUDIO
    TITLE "6:cjc129_0449"
    INDEX 01 01:12:28
  TRACK 49 AUDIO
    TITLE "0:"
    INDEX 01 01:15:64
  TRACK 50 AUDIO
    TITLE "3:cjc129_0450"
    INDEX 01 01:17:43
  TRACK 51 AUDIO
    TITLE "0:"
    INDEX 01 01:19:17
  TRACK 52 AUDIO
    TITLE "5:cjc129_0451"
    INDEX 01 01:19:48
  TRACK 53 AUDIO
    TITLE "0:"
    INDEX 01 01:20:59
  TRACK 54 AUDIO
    TITLE "4:cjc129_0452"
    INDEX 01 01:21:49
  TRACK 55 AUDIO
    TITLE "0:"
    INDEX 01 01:23:22
  TRACK 56 AUDIO
    TITLE "6:cjc129_0453"
    INDEX 01 01:23:54
  TRACK 57 AUDIO
    TITLE "0:"
    INDEX 01 01:28:59
  TRACK 58 AUDIO
    TITLE "3:cjc129_0454"
    INDEX 01 01:30:34
  TRACK 59 AUDIO
    TITLE "0:"
    INDEX 01 01:31:43
  TRACK 60 AUDIO
    TITLE "5:cjc129_0455"
    INDEX 01 01:32:00
  TRACK 61 AUDIO
    TITLE "0:"
    INDEX 01 01:35:49
  TRACK 62 AUDIO
    TITLE "4:cjc129_0456"
    INDEX 01 01:36:39
  TRACK 63 AUDIO
    TITLE "0:"
    INDEX 01 01:37:50
  TRACK 64 AUDIO
    TITLE "6:cjc129_0457"
    INDEX 01 01:38:06
  TRACK 65 AUDIO
    TITLE "0:"
    INDEX 01 01:45:10
  TRACK 66 AUDIO
    TITLE "3:cjc129_0458"
    INDEX 01 01:46:59
  TRACK 67 AUDIO
    TITLE "0:"
    INDEX 01 01:48:01
  TRACK 68 AUDIO
    TITLE "5:cjc129_0459"
    INDEX 01 01:48:32
  TRACK 69 AUDIO
    TITLE "0:"
    INDEX 01 01:49:37
  TRACK 70 AUDIO
    TITLE "4:cjc129_0460"
    INDEX 01 01:50:27
  TRACK 71 AUDIO
    TITLE "0:"
    INDEX 01 01:51:44
  TRACK 72 AUDIO
    TITLE "6:cjc129_0461"
    INDEX 01 01:52:00
  TRACK 73 AUDIO
    TITLE "0:"
    INDEX 01 01:56:04
